<svg width="23" height="23" viewBox="0 0 23 23" fill="none" xmlns="http://www.w3.org/2000/svg">
<path fill-rule="evenodd" clip-rule="evenodd" d="M22.26 11.9199C22.26 17.9951 17.3352 22.9199 11.2601 22.9199C5.18489 22.9199 0.26001 17.9951 0.26001 11.9199C0.26001 5.84479 5.18489 0.919922 11.2601 0.919922C17.3352 0.919922 22.26 5.84479 22.26 11.9199ZM11.6556 9.04048C10.5857 9.48549 8.44736 10.4066 5.24063 11.8037C4.7199 12.0108 4.44711 12.2133 4.4223 12.4114C4.38031 12.7462 4.79957 12.878 5.37047 13.0575C5.44811 13.082 5.52854 13.1072 5.611 13.134C6.17265 13.3166 6.92814 13.5301 7.32092 13.5387C7.67716 13.5464 8.07481 13.3995 8.51383 13.098C11.51 11.0756 13.0566 10.0533 13.1537 10.0312C13.2221 10.0157 13.3172 9.99616 13.3815 10.0533C13.4457 10.1105 13.4394 10.2188 13.4327 10.2478C13.3911 10.4247 11.7471 11.9533 10.8951 12.7453C10.629 12.9927 10.4402 13.1682 10.4017 13.2083C10.3154 13.2979 10.2275 13.3826 10.1431 13.464C9.62134 13.967 9.23001 14.3442 10.1647 14.9601C10.614 15.2562 10.9735 15.5011 11.3321 15.7453C11.7237 16.0119 12.1142 16.278 12.6196 16.6092C12.7483 16.6936 12.8713 16.7812 12.9911 16.8666C13.4468 17.1916 13.8563 17.4834 14.3622 17.4368C14.6561 17.4098 14.9597 17.1335 15.1138 16.3092C15.4782 14.361 16.1946 10.14 16.3601 8.4007C16.3746 8.2483 16.3565 8.05327 16.3417 7.96765C16.327 7.88205 16.2965 7.76006 16.1851 7.66977C16.0534 7.56283 15.8499 7.54028 15.7589 7.54189C15.3451 7.54916 14.7104 7.76987 11.6556 9.04048Z" fill="white"/>
</svg>
